<svg width="31" height="19" viewBox="0 0 31 19" fill="none" xmlns="http://www.w3.org/2000/svg">
<path d="M8.7045 0C9.588 0 10.383 0.0765003 11.112 0.2325C11.8365 0.387 12.4545 0.642 12.9765 0.9945C13.491 1.347 13.893 1.815 14.1825 2.403C14.463 2.9835 14.6025 3.7095 14.6025 4.5675C14.6025 5.4975 14.3925 6.2745 13.971 6.894C13.5465 7.515 12.921 8.0235 12.087 8.4165C13.2225 8.745 14.064 9.3195 14.622 10.1355C15.183 10.959 15.4575 11.9445 15.4575 13.0995C15.4575 14.037 15.279 14.8425 14.9205 15.519C14.575 16.1854 14.0738 16.7587 13.4595 17.19C12.8232 17.6331 12.1124 17.9583 11.361 18.15C10.5732 18.3568 9.76197 18.4607 8.9475 18.459H0V0H8.7045ZM8.178 7.458C8.898 7.458 9.495 7.287 9.966 6.9405C10.434 6.5985 10.6605 6.0345 10.6605 5.262C10.6605 4.833 10.584 4.479 10.434 4.2015C10.2879 3.93453 10.0716 3.71254 9.8085 3.5595C9.53315 3.39619 9.22925 3.28675 8.913 3.237C8.56829 3.17271 8.21814 3.14207 7.8675 3.1455H4.065V7.458H8.178ZM8.4045 15.3165C8.805 15.3165 9.186 15.282 9.5445 15.201C9.906 15.123 10.227 14.997 10.5 14.8095C10.773 14.6295 10.998 14.385 11.16 14.073C11.3235 13.764 11.403 13.3605 11.403 12.876C11.403 11.925 11.1345 11.2485 10.6035 10.839C10.071 10.434 9.357 10.233 8.4825 10.233H4.065V15.318H8.4045V15.3165ZM21.252 15.255C21.8025 15.792 22.596 16.062 23.628 16.062C24.3675 16.062 25.0065 15.8745 25.545 15.5025C26.076 15.129 26.4 14.73 26.5245 14.3175H29.757C29.238 15.9255 28.4505 17.0745 27.3735 17.766C26.31 18.4605 25.0155 18.8055 23.5035 18.8055C22.4505 18.8055 21.5025 18.636 20.6535 18.3C19.8386 17.9826 19.1022 17.4924 18.495 16.863C17.8978 16.2189 17.4362 15.4614 17.1375 14.6355C16.8092 13.7222 16.6466 12.7575 16.6575 11.787C16.6575 10.788 16.824 9.8535 17.151 8.991C17.4614 8.15727 17.9381 7.39535 18.552 6.7515C19.1595 6.1215 19.8795 5.625 20.718 5.2605C21.5997 4.88966 22.5485 4.70481 23.505 4.7175C24.636 4.7175 25.6245 4.9365 26.4735 5.3775C27.2968 5.79847 28.0107 6.40553 28.5585 7.1505C29.103 7.89 29.4915 8.7375 29.733 9.687C29.9745 10.635 30.0585 11.625 29.9895 12.6615H20.343C20.3445 13.7175 20.7 14.718 21.252 15.255ZM25.47 8.2335C25.0335 7.7505 24.2955 7.4895 23.3925 7.4895C22.806 7.4895 22.3215 7.587 21.9315 7.788C21.5749 7.96811 21.2585 8.21866 21.0015 8.5245C20.7758 8.80218 20.6084 9.12258 20.5095 9.4665C20.423 9.75328 20.3672 10.0484 20.343 10.347H26.316C26.229 9.411 25.908 8.7195 25.47 8.2335ZM19.593 1.239H27.0765V3.0615H19.593V1.239Z" fill="black"/>
</svg>
