<svg width="28" height="28" viewBox="0 0 28 28" fill="none" xmlns="http://www.w3.org/2000/svg">
<path d="M13.4955 6.558C11.656 6.558 9.89176 7.28875 8.59101 8.58951C7.29026 9.89026 6.5595 11.6545 6.5595 13.494C6.5595 15.3335 7.29026 17.0977 8.59101 18.3985C9.89176 19.6992 11.656 20.43 13.4955 20.43C15.335 20.43 17.0992 19.6992 18.4 18.3985C19.7007 17.0977 20.4315 15.3335 20.4315 13.494C20.4315 11.6545 19.7007 9.89026 18.4 8.58951C17.0992 7.28875 15.335 6.558 13.4955 6.558ZM13.4955 17.9985C12.3004 17.9985 11.1543 17.5238 10.3093 16.6787C9.46424 15.8337 8.9895 14.6876 8.9895 13.4925C8.9895 12.2974 9.46424 11.1513 10.3093 10.3063C11.1543 9.46124 12.3004 8.9865 13.4955 8.9865C14.6906 8.9865 15.8367 9.46124 16.6817 10.3063C17.5268 11.1513 18.0015 12.2974 18.0015 13.4925C18.0015 14.6876 17.5268 15.8337 16.6817 16.6787C15.8367 17.5238 14.6906 17.9985 13.4955 17.9985Z" fill="black"/>
<path d="M20.706 7.92C21.599 7.92 22.323 7.19604 22.323 6.303C22.323 5.40996 21.599 4.686 20.706 4.686C19.813 4.686 19.089 5.40996 19.089 6.303C19.089 7.19604 19.813 7.92 20.706 7.92Z" fill="black"/>
<path d="M26.2965 4.659C25.9493 3.76227 25.4186 2.94792 24.7385 2.26809C24.0584 1.58825 23.2439 1.05791 22.347 0.711C21.2975 0.317035 20.1888 0.104012 19.068 0.0809999C17.6235 0.0179999 17.166 0 13.503 0C9.84 0 9.3705 -1.49012e-07 7.938 0.0809999C6.81808 0.102835 5.71014 0.315902 4.662 0.711C3.7649 1.0575 2.95015 1.58771 2.27 2.26759C1.58986 2.94748 1.05934 3.76204 0.7125 4.659C0.318457 5.70842 0.105922 6.81726 0.084 7.938C0.0195 9.381 0 9.8385 0 13.503C0 17.166 -1.49012e-08 17.6325 0.084 19.068C0.1065 20.19 0.318 21.297 0.7125 22.3485C1.06032 23.2451 1.59134 24.0594 2.27165 24.7392C2.95196 25.419 3.7666 25.9494 4.6635 26.2965C5.70965 26.7063 6.81806 26.9346 7.941 26.9715C9.3855 27.0345 9.843 27.054 13.506 27.054C17.169 27.054 17.6385 27.054 19.071 26.9715C20.1917 26.9487 21.3003 26.7362 22.35 26.343C23.2466 25.9953 24.0609 25.4645 24.741 24.7845C25.421 24.1044 25.9518 23.2901 26.2995 22.3935C26.694 21.3435 26.9055 20.2365 26.928 19.1145C26.9925 17.6715 27.012 17.214 27.012 13.5495C27.012 9.885 27.012 9.42 26.928 7.9845C26.9105 6.84791 26.6969 5.72287 26.2965 4.659ZM24.4695 18.957C24.4598 19.8215 24.302 20.6779 24.003 21.489C23.7777 22.0723 23.4329 22.602 22.9906 23.044C22.5483 23.486 22.0184 23.8306 21.435 24.0555C20.6328 24.3532 19.7855 24.511 18.93 24.522C17.505 24.588 17.103 24.6045 13.449 24.6045C9.792 24.6045 9.4185 24.6045 7.9665 24.522C7.11139 24.5115 6.26449 24.3537 5.463 24.0555C4.87753 23.832 4.3455 23.488 3.90134 23.0459C3.45717 22.6038 3.11075 22.0734 2.8845 21.489C2.58967 20.6866 2.43197 19.8403 2.418 18.9855C2.3535 17.5605 2.3385 17.1585 2.3385 13.5045C2.3385 9.849 2.3385 9.4755 2.418 8.022C2.4277 7.15803 2.58548 6.30213 2.8845 5.4915C3.342 4.308 4.2795 3.3765 5.463 2.9235C6.26488 2.62671 7.11154 2.46895 7.9665 2.457C9.393 2.3925 9.7935 2.3745 13.449 2.3745C17.1045 2.3745 17.4795 2.3745 18.93 2.457C19.7856 2.46729 20.633 2.62511 21.435 2.9235C22.0184 3.14891 22.5482 3.4938 22.9905 3.93605C23.4327 4.37829 23.7776 4.90811 24.003 5.4915C24.2978 6.29392 24.4555 7.14024 24.4695 7.995C24.534 9.4215 24.5505 9.822 24.5505 13.4775C24.5505 17.1315 24.5505 17.5245 24.486 18.9585H24.4695V18.957Z" fill="black"/>
</svg>
